<svg width="200" height="60" viewBox="0 0 200 60" fill="none" xmlns="http://www.w3.org/2000/svg">
  <defs>
    <linearGradient id="saloneo-gradient" x1="0%" y1="0%" x2="100%" y2="100%">
      <stop offset="0%" style="stop-color:#4F46E5;stop-opacity:1" />
      <stop offset="100%" style="stop-color:#06B6D4;stop-opacity:1" />
    </linearGradient>
  </defs>
  
  <!-- Logo Icon -->
  <g transform="translate(10, 15)">
    <path d="M15 5C15 5 10 0 5 0C2.24 0 0 2.24 0 5C0 7.76 2.24 10 5 10C7.5 10 9.5 8.5 10.5 6.5L15 12L19.5 6.5C20.5 8.5 22.5 10 25 10C27.76 10 30 7.76 30 5C30 2.24 27.76 0 25 0C20 0 15 5 15 5Z" fill="url(#saloneo-gradient)" opacity="0.9"/>
    <circle cx="15" cy="20" r="3" fill="#06B6D4" opacity="0.8"/>
    <circle cx="15" cy="20" r="1.5" fill="#4F46E5"/>
  </g>
  
  <!-- Text -->
  <text x="50" y="35" font-family="Arial, sans-serif" font-size="28" font-weight="700" fill="#1E293B">Saloneo</text>
</svg>
